<svg width="49" height="59" viewBox="0 0 49 59" fill="none" xmlns="http://www.w3.org/2000/svg">
<path d="M14.2119 0.0368684C14.0598 0.0645246 13.9031 0.0921809 13.7694 0.184368C13.2301 0.548509 13.1103 1.30445 13.4744 1.84374L16.0188 5.64187C12.087 7.72531 9.15542 11.1869 8.20127 15.34H40.7988C39.8446 11.1869 36.9131 7.72531 32.9813 5.64187L35.5257 1.84374C35.8898 1.30445 35.7699 0.548509 35.2307 0.184368C34.6867 -0.179773 33.9354 -0.0230536 33.5713 0.516243L30.7688 4.64624C28.8236 3.9364 26.7125 3.53999 24.5 3.53999C22.2875 3.53999 20.1764 3.9364 18.2313 4.64624L15.4288 0.516243C15.1568 0.110618 14.6636 -0.0507098 14.2119 0.0368684ZM18.01 9.43999C18.9872 9.43999 19.78 10.2328 19.78 11.21C19.78 12.1918 18.9872 12.98 18.01 12.98C17.0282 12.98 16.24 12.1918 16.24 11.21C16.24 10.2328 17.0282 9.43999 18.01 9.43999ZM30.99 9.43999C31.9718 9.43999 32.76 10.2328 32.76 11.21C32.76 12.1918 31.9718 12.98 30.99 12.98C30.0128 12.98 29.22 12.1918 29.22 11.21C29.22 10.2328 30.0128 9.43999 30.99 9.43999ZM4.44002 17.7C2.48565 17.7 0.900024 19.2856 0.900024 21.24V37.76C0.900024 39.7144 2.48565 41.3 4.44002 41.3C4.85487 41.3 5.25127 41.2124 5.62002 41.0787V17.9212C5.25127 17.7876 4.85487 17.7 4.44002 17.7ZM7.98002 17.7V43.66C7.98002 45.6098 9.57026 47.2 11.52 47.2H37.48C39.4298 47.2 41.02 45.6098 41.02 43.66V17.7H7.98002ZM44.56 17.7C44.1452 17.7 43.7488 17.7876 43.38 17.9212V41.0787C43.7488 41.2078 44.1452 41.3 44.56 41.3C46.5144 41.3 48.1 39.7144 48.1 37.76V21.24C48.1 19.2856 46.5144 17.7 44.56 17.7ZM12.7 49.56V54.28C12.7 56.8843 14.8157 59 17.42 59C20.0243 59 22.14 56.8843 22.14 54.28V49.56H12.7ZM26.86 49.56V54.28C26.86 56.8843 28.9757 59 31.58 59C34.1843 59 36.3 56.8843 36.3 54.28V49.56H26.86Z" fill="black"/>
</svg>
