<svg width="140" height="46" viewBox="0 0 140 46" fill="none" xmlns="http://www.w3.org/2000/svg">
<g clip-path="url(#clip0_1_84)">
<path d="M142.321 -6H91.6843C89.6507 -6 88 -4.34933 88 -2.31566V48.3157C88 50.3493 89.6507 52 91.6843 52H142.316C144.349 52 146 50.3493 146 48.3211V-2.31566C146 -4.34933 144.349 -6 142.321 -6ZM119.762 38.444C119.762 43.9624 116.525 46.4762 111.8 46.4762C107.528 46.4762 104.447 43.6118 103.19 40.9524L107.533 38.3253C108.369 39.8088 109.642 40.9524 111.476 40.9524C113.229 40.9524 114.238 40.2673 114.238 37.6025V20.2381H119.762V38.444ZM131.743 46.4762C126.85 46.4762 124.072 44.011 122.524 40.9524L126.667 38.1905C127.794 40.0353 129.024 41.7993 131.624 41.7993C133.809 41.7993 134.952 40.7096 134.952 39.1992C134.952 37.3975 133.766 36.7556 131.365 35.7037L130.049 35.1373C126.246 33.519 123.716 31.4907 123.716 27.1968C123.716 23.2481 126.731 20.2381 131.435 20.2381C134.785 20.2381 137.191 21.4033 138.928 24.4565L134.828 27.0943C133.922 25.4706 132.951 24.8341 131.435 24.8341C129.892 24.8341 128.916 25.8158 128.916 27.0943C128.916 28.6749 129.892 29.3114 132.153 30.2932L133.469 30.8596C137.952 32.7746 140.476 34.7327 140.476 39.1345C140.476 43.8761 136.749 46.4762 131.743 46.4762Z" fill="black"/>
</g>
<path d="M13.608 37.624V40H1.92V22.96H13.392V25.336H4.608V30.184H12.216V32.416H4.608V37.624H13.608ZM17.5329 27.448L20.5089 31.744L20.7249 32.152L20.9409 31.744L23.8929 27.448H26.7489L22.2369 33.736L26.7969 40H23.9409L20.9409 35.728L20.7249 35.344L20.5089 35.728L17.5089 40H14.6529L19.2129 33.76L14.7009 27.448H17.5329ZM35.712 40.24C34.704 40.24 33.816 40 33.048 39.52C32.28 39.04 31.672 38.416 31.224 37.648V45.112H28.584V27.448H30.912V29.704C31.392 28.952 32.016 28.352 32.784 27.904C33.552 27.456 34.408 27.232 35.352 27.232C36.216 27.232 37.008 27.408 37.728 27.76C38.448 28.096 39.072 28.568 39.6 29.176C40.128 29.784 40.536 30.48 40.824 31.264C41.128 32.032 41.28 32.848 41.28 33.712C41.28 34.912 41.04 36.008 40.56 37C40.096 37.992 39.44 38.784 38.592 39.376C37.76 39.952 36.8 40.24 35.712 40.24ZM34.848 37.984C35.408 37.984 35.912 37.864 36.36 37.624C36.824 37.384 37.216 37.064 37.536 36.664C37.872 36.264 38.128 35.808 38.304 35.296C38.48 34.784 38.568 34.256 38.568 33.712C38.568 33.136 38.472 32.592 38.28 32.08C38.088 31.568 37.808 31.12 37.44 30.736C37.088 30.352 36.672 30.048 36.192 29.824C35.728 29.6 35.216 29.488 34.656 29.488C34.32 29.488 33.968 29.552 33.6 29.68C33.232 29.808 32.888 29.984 32.568 30.208C32.248 30.432 31.968 30.696 31.728 31C31.488 31.304 31.32 31.624 31.224 31.96V35.248C31.448 35.76 31.744 36.224 32.112 36.64C32.48 37.04 32.904 37.368 33.384 37.624C33.864 37.864 34.352 37.984 34.848 37.984ZM50.7103 29.728C49.6863 29.744 48.7743 29.976 47.9743 30.424C47.1903 30.872 46.6303 31.504 46.2943 32.32V40H43.6543V27.448H46.1023V30.256C46.5343 29.392 47.1023 28.704 47.8063 28.192C48.5103 27.664 49.2543 27.376 50.0383 27.328C50.1983 27.328 50.3263 27.328 50.4223 27.328C50.5343 27.328 50.6303 27.336 50.7103 27.352V29.728ZM58.0845 40.24C57.1085 40.24 56.2205 40.072 55.4205 39.736C54.6365 39.384 53.9565 38.912 53.3805 38.32C52.8045 37.712 52.3565 37.024 52.0365 36.256C51.7325 35.472 51.5805 34.64 51.5805 33.76C51.5805 32.576 51.8525 31.496 52.3965 30.52C52.9405 29.528 53.7005 28.736 54.6765 28.144C55.6525 27.536 56.7965 27.232 58.1085 27.232C59.4205 27.232 60.5485 27.536 61.4925 28.144C62.4525 28.736 63.1965 29.52 63.7245 30.496C64.2525 31.472 64.5165 32.52 64.5165 33.64C64.5165 33.832 64.5085 34.016 64.4925 34.192C64.4765 34.352 64.4605 34.488 64.4445 34.6H54.3885C54.4365 35.336 54.6365 35.984 54.9885 36.544C55.3565 37.088 55.8205 37.52 56.3805 37.84C56.9405 38.144 57.5405 38.296 58.1805 38.296C58.8845 38.296 59.5485 38.12 60.1725 37.768C60.8125 37.416 61.2445 36.952 61.4685 36.376L63.7245 37.024C63.4525 37.632 63.0365 38.184 62.4765 38.68C61.9325 39.16 61.2845 39.544 60.5325 39.832C59.7805 40.104 58.9645 40.24 58.0845 40.24ZM54.3165 32.848H61.9005C61.8525 32.128 61.6445 31.496 61.2765 30.952C60.9245 30.392 60.4685 29.96 59.9085 29.656C59.3645 29.336 58.7565 29.176 58.0845 29.176C57.4285 29.176 56.8205 29.336 56.2605 29.656C55.7165 29.96 55.2685 30.392 54.9165 30.952C54.5645 31.496 54.3645 32.128 54.3165 32.848ZM71.1339 40.24C70.0779 40.24 69.0779 40.072 68.1339 39.736C67.1899 39.384 66.3819 38.864 65.7099 38.176L66.6939 36.4C67.4139 37.04 68.1339 37.504 68.8539 37.792C69.5899 38.08 70.3179 38.224 71.0379 38.224C71.7739 38.224 72.3739 38.088 72.8379 37.816C73.3019 37.528 73.5339 37.112 73.5339 36.568C73.5339 36.168 73.4139 35.872 73.1739 35.68C72.9339 35.488 72.5819 35.32 72.1179 35.176C71.6699 35.032 71.1259 34.872 70.4859 34.696C69.5899 34.424 68.8379 34.144 68.2299 33.856C67.6219 33.552 67.1659 33.184 66.8619 32.752C66.5579 32.32 66.4059 31.768 66.4059 31.096C66.4059 30.28 66.6139 29.584 67.0299 29.008C67.4459 28.432 68.0219 27.992 68.7579 27.688C69.5099 27.384 70.3739 27.232 71.3499 27.232C72.2619 27.232 73.1019 27.376 73.8699 27.664C74.6539 27.936 75.3419 28.368 75.9339 28.96L74.8059 30.712C74.2459 30.2 73.6699 29.824 73.0779 29.584C72.5019 29.344 71.8779 29.224 71.2059 29.224C70.8219 29.224 70.4539 29.272 70.1019 29.368C69.7499 29.448 69.4539 29.608 69.2139 29.848C68.9899 30.072 68.8779 30.392 68.8779 30.808C68.8779 31.144 68.9739 31.416 69.1659 31.624C69.3579 31.832 69.6459 32.008 70.0299 32.152C70.4139 32.296 70.8859 32.456 71.4459 32.632C72.4219 32.92 73.2539 33.208 73.9419 33.496C74.6299 33.768 75.1579 34.128 75.5259 34.576C75.9099 35.008 76.1019 35.608 76.1019 36.376C76.1019 37.592 75.6459 38.544 74.7339 39.232C73.8379 39.904 72.6379 40.24 71.1339 40.24ZM82.923 40.24C81.867 40.24 80.867 40.072 79.923 39.736C78.979 39.384 78.171 38.864 77.499 38.176L78.483 36.4C79.203 37.04 79.923 37.504 80.643 37.792C81.379 38.08 82.107 38.224 82.827 38.224C83.563 38.224 84.163 38.088 84.627 37.816C85.091 37.528 85.323 37.112 85.323 36.568C85.323 36.168 85.203 35.872 84.963 35.68C84.723 35.488 84.371 35.32 83.907 35.176C83.459 35.032 82.915 34.872 82.275 34.696C81.379 34.424 80.627 34.144 80.019 33.856C79.411 33.552 78.955 33.184 78.651 32.752C78.347 32.32 78.195 31.768 78.195 31.096C78.195 30.28 78.403 29.584 78.819 29.008C79.235 28.432 79.811 27.992 80.547 27.688C81.299 27.384 82.163 27.232 83.139 27.232C84.051 27.232 84.891 27.376 85.659 27.664C86.443 27.936 87.131 28.368 87.723 28.96L86.595 30.712C86.035 30.2 85.459 29.824 84.867 29.584C84.291 29.344 83.667 29.224 82.995 29.224C82.611 29.224 82.243 29.272 81.891 29.368C81.539 29.448 81.243 29.608 81.003 29.848C80.779 30.072 80.667 30.392 80.667 30.808C80.667 31.144 80.763 31.416 80.955 31.624C81.147 31.832 81.435 32.008 81.819 32.152C82.203 32.296 82.675 32.456 83.235 32.632C84.211 32.92 85.043 33.208 85.731 33.496C86.419 33.768 86.947 34.128 87.315 34.576C87.699 35.008 87.891 35.608 87.891 36.376C87.891 37.592 87.435 38.544 86.523 39.232C85.627 39.904 84.427 40.24 82.923 40.24Z" fill="black"/>
<defs>
<clipPath id="clip0_1_84">
<rect width="46" height="46" fill="white" transform="translate(94)"/>
</clipPath>
</defs>
</svg>
