<svg width="167" height="45" viewBox="0 0 167 45" fill="none" xmlns="http://www.w3.org/2000/svg">
<g clip-path="url(#clip0_1_87)">
<path d="M20.1791 18.051C17.8811 7.91999 13.0915 5.22299 11.8697 3.31649C11.3659 2.47663 10.9196 1.60363 10.5339 0.703491C10.4693 1.60349 10.3508 2.17049 9.58526 2.85299C8.04826 4.22249 1.52052 9.53849 0.971159 21.0495C0.459327 31.782 8.86629 38.4 9.97701 39.084C10.8311 39.504 11.8712 39.093 12.3786 38.7075C16.4312 35.928 21.9683 28.518 20.1836 18.051" fill="#464646"/>
<path d="M10.8821 33.369C10.6705 36.0255 10.5189 37.569 9.98151 39.087C9.98151 39.087 10.3342 41.616 10.5819 44.295H11.4585C11.6676 42.4085 11.9868 40.5358 12.4146 38.6865C11.2798 38.1285 10.9256 35.7 10.8821 33.369Z" fill="#B8C4C2"/>
<path d="M12.413 38.688C11.2663 38.1585 10.9346 35.679 10.8836 33.369C11.1671 29.5585 11.2498 25.7357 11.1312 21.9165C11.0712 19.9125 11.1597 3.35549 10.6374 0.931488C10.9947 1.75247 11.4064 2.54874 11.8697 3.31499C13.0915 5.22299 17.8826 7.91999 20.1791 18.051C21.9683 28.5 16.4612 35.8905 12.413 38.688Z" fill="#1F1F1F"/>
<path d="M163.561 35.025C163.07 35.025 162.59 34.8798 162.182 34.6079C161.773 34.3359 161.454 33.9493 161.264 33.4966C161.075 33.0439 161.023 32.5453 161.117 32.0636C161.21 31.5818 161.444 31.1384 161.789 30.789C162.133 30.4397 162.574 30.2 163.055 30.1001C163.535 30.0002 164.035 30.0446 164.491 30.2277C164.946 30.4107 165.337 30.7243 165.615 31.129C165.893 31.5337 166.045 32.0114 166.051 32.502C166.06 32.8328 166.002 33.1621 165.881 33.4699C165.759 33.7778 165.577 34.058 165.344 34.2936C165.112 34.5292 164.834 34.7155 164.527 34.8411C164.221 34.9668 163.892 35.0294 163.561 35.025ZM163.561 30.273C163.113 30.27 162.673 30.4002 162.299 30.647C161.924 30.8938 161.631 31.2462 161.457 31.6594C161.283 32.0727 161.236 32.5282 161.321 32.9684C161.406 33.4086 161.62 33.8136 161.936 34.1321C162.252 34.4506 162.655 34.6683 163.095 34.7576C163.535 34.8469 163.991 34.8038 164.406 34.6337C164.821 34.4636 165.176 34.1743 165.427 33.8023C165.677 33.4303 165.812 32.9924 165.813 32.544C165.819 32.2459 165.765 31.9497 165.654 31.6729C165.543 31.3962 165.378 31.1444 165.168 30.9326C164.958 30.7209 164.707 30.5534 164.431 30.44C164.155 30.3267 163.86 30.2699 163.561 30.273ZM164.162 34.11L163.519 32.7255H163.001V34.11H162.625V30.96H163.554C164.246 30.96 164.534 31.26 164.534 31.8405C164.534 32.3025 164.316 32.5905 163.911 32.679L164.574 34.1055L164.162 34.11ZM163.016 32.4H163.561C164.003 32.4 164.171 32.25 164.171 31.848C164.171 31.446 164.01 31.3095 163.513 31.3095H163.016V32.4Z" fill="black"/>
<path d="M126.501 32.757C127.175 33.2955 128.521 33.5175 129.708 33.5175C131.247 33.5175 132.755 33.2325 134.229 31.902C135.73 30.5385 136.763 28.452 136.763 25.1205C136.763 21.9195 135.544 19.3215 133.043 17.8005C131.633 16.914 129.804 16.5645 127.719 16.5645C127.119 16.5645 126.501 16.596 126.149 16.755C126.005 16.8686 125.904 17.027 125.86 17.205C125.797 17.775 125.797 22.116 125.797 24.6825C125.797 27.3135 125.797 30.9825 125.86 31.4325C125.893 31.8135 126.085 32.4825 126.501 32.763M120.101 15.1395C120.645 15.1395 122.717 15.234 123.68 15.234C125.482 15.234 126.726 15.1395 130.092 15.1395C132.914 15.1395 135.289 15.9 136.986 17.3565C139.04 19.1325 140.139 21.603 140.139 24.6135C140.139 28.8915 138.187 31.3635 136.225 32.757C134.274 34.215 131.736 35.0385 128.12 35.0385C126.196 35.0385 122.892 34.9755 120.135 34.944H120.078C119.949 34.6905 120.314 33.702 120.539 33.6765C121.289 33.5925 121.487 33.5625 121.833 33.42C122.415 33.1815 122.552 32.8845 122.616 31.839C122.712 29.874 122.681 27.5295 122.681 24.867C122.681 22.9665 122.712 19.2585 122.649 18.0855C122.552 17.1045 122.137 16.851 121.298 16.6605C120.703 16.5342 120.102 16.4391 119.497 16.3755C119.434 16.185 119.926 15.3255 120.087 15.1395" fill="black"/>
<path d="M148.086 16.7475C147.959 16.779 147.798 17.097 147.798 17.2545C147.765 18.396 147.734 21.3735 147.734 23.433C147.742 23.4724 147.761 23.5085 147.79 23.5368C147.818 23.565 147.855 23.5843 147.894 23.592C148.31 23.6235 149.337 23.6565 150.203 23.6565C151.421 23.6565 152.127 23.4975 152.511 23.307C153.538 22.8 154.012 21.69 154.012 20.487C154.012 17.73 152.088 16.6845 149.234 16.6845C148.849 16.6796 148.463 16.7007 148.08 16.7475M155.36 29.4225C155.36 26.634 153.307 25.05 149.554 25.05C149.395 25.05 148.203 25.0185 147.92 25.0815C147.824 25.113 147.728 25.176 147.728 25.2405C147.728 27.237 147.694 30.4365 147.792 31.704C147.857 32.2425 148.242 33.003 148.721 33.225C149.234 33.51 150.389 33.573 151.19 33.573C153.403 33.573 155.36 32.3385 155.36 29.4225ZM142.292 15.195C142.582 15.195 143.435 15.2895 145.616 15.2895C147.667 15.2895 149.335 15.2265 151.319 15.2265C153.788 15.2265 157.187 16.1145 157.187 19.7895C157.187 21.5895 155.905 23.0535 154.237 23.751C154.141 23.7825 154.141 23.8455 154.237 23.877C156.61 24.477 158.694 25.9365 158.694 28.725C158.694 31.4505 156.995 33.162 154.525 34.239C153.024 34.905 151.159 35.1255 149.272 35.1255C147.83 35.1255 143.963 34.9755 141.814 34.9995C141.589 34.905 142.019 33.8895 142.211 33.732C142.704 33.7169 143.192 33.6403 143.666 33.504C144.434 33.315 144.526 33.0675 144.622 31.926C144.687 30.9435 144.687 27.426 144.687 24.9225C144.687 21.4995 144.72 19.188 144.687 18.0465C144.655 17.16 144.334 16.8735 143.724 16.716C143.244 16.62 142.443 16.5255 141.802 16.431C141.641 16.272 142.135 15.321 142.294 15.195" fill="black"/>
<path d="M27.2802 35.025C27.1976 34.8222 27.1642 34.6027 27.1826 34.3845C27.1754 34.2358 27.2092 34.0879 27.2802 33.957C27.6949 33.8972 28.1059 33.8136 28.511 33.7065C29.0784 33.5655 29.2915 33.2565 29.3245 32.5335C29.4176 30.825 29.4236 27.6195 29.3906 25.3665V25.3005C29.3906 25.0575 29.3906 24.7275 29.0904 24.495C28.5628 24.1642 27.9899 23.9116 27.3898 23.745C27.1211 23.6655 26.9725 23.5245 26.98 23.3595C26.9875 23.1945 27.1571 22.9995 27.5068 22.9305C28.436 22.836 30.8705 22.2555 31.8267 21.8145C31.9251 21.9427 31.9708 22.1037 31.9542 22.2645C31.9542 22.3635 31.9392 22.4685 31.9287 22.5765C31.9017 22.8945 31.8717 23.256 31.8717 23.616C31.8776 23.6597 31.8955 23.701 31.9236 23.735C31.9517 23.7691 31.9887 23.7947 32.0305 23.8089C32.0723 23.8231 32.1172 23.8253 32.1602 23.8153C32.2033 23.8054 32.2426 23.7836 32.2739 23.7525C34.0946 22.326 35.7262 21.8175 36.5622 21.8175C37.9386 21.8175 39.0103 22.4745 39.8404 23.8275C39.8594 23.8602 39.8865 23.8874 39.9191 23.9066C39.9517 23.9258 39.9887 23.9362 40.0265 23.937C40.0609 23.9367 40.0946 23.9281 40.125 23.9119C40.1553 23.8957 40.1812 23.8724 40.2006 23.844C41.8742 22.575 43.5328 21.8175 44.6435 21.8175C47.2672 21.8175 48.8357 23.781 48.8357 27.0675C48.8357 28.0125 48.8267 29.211 48.8177 30.3285C48.8102 31.3095 48.8027 32.229 48.8027 32.865C48.8027 33.015 49.0098 33.447 49.3205 33.5325C49.7048 33.72 50.2586 33.816 50.9596 33.936H50.9866C51.0391 34.125 50.9281 34.8585 50.8215 35.0085C50.6474 35.0085 50.4072 34.9935 50.107 34.9785C49.5622 34.9515 48.8147 34.914 47.9456 34.914C46.2015 34.914 45.2904 34.947 44.4198 35.004C44.3538 34.7865 44.3313 34.0845 44.4108 33.9375C44.7713 33.8812 45.1282 33.8035 45.4795 33.705C46.0349 33.522 46.1955 33.27 46.23 32.5335C46.2435 32.01 46.3441 27.3975 46.1655 26.3025C46.0004 25.167 45.1448 23.838 43.2731 23.838C42.5781 23.838 41.4569 24.1275 40.3882 24.9375C40.3219 25.0126 40.2847 25.1089 40.2832 25.209V25.2315C40.4092 25.8225 40.4092 26.5125 40.4092 27.555C40.4092 28.155 40.4092 28.7805 40.4017 29.406C40.3942 30.678 40.3882 31.878 40.4092 32.7855C40.4092 33.4035 40.783 33.552 41.0847 33.6705C41.2483 33.7065 41.3774 33.738 41.5079 33.768C41.7586 33.8295 42.0198 33.8925 42.4085 33.954C42.4661 34.2175 42.4609 34.4909 42.3935 34.752C42.3776 34.85 42.3391 34.943 42.2809 35.0235C41.3113 34.9905 40.3162 34.962 38.8797 34.962C38.4445 34.962 37.7345 34.98 37.1071 34.9965C36.5983 35.01 36.1179 35.0235 35.8448 35.025C35.7709 34.8508 35.738 34.6619 35.7487 34.473C35.7334 34.295 35.7682 34.1163 35.8493 33.957L36.235 33.8865C36.5712 33.8265 36.8624 33.7755 37.1356 33.7065C37.6099 33.5565 37.7885 33.2985 37.8231 32.694C37.9161 31.284 37.9882 27.2205 37.7885 26.2035C37.4493 24.5715 36.5202 23.7435 35.0252 23.7435C34.1502 23.7435 33.0439 24.165 32.1404 24.8415C32.0534 24.9261 31.985 25.0277 31.9393 25.14C31.8935 25.2523 31.8716 25.3728 31.8747 25.494C31.8747 25.9785 31.8747 26.5545 31.8747 27.1725C31.8747 29.2125 31.8612 31.752 31.9107 32.85C31.9407 33.189 32.0608 33.591 32.6957 33.738C32.8353 33.7785 33.0755 33.8175 33.3546 33.864C33.5153 33.891 33.6909 33.9195 33.8725 33.9525C33.9302 34.3117 33.9009 34.6795 33.7869 35.025C33.5077 35.025 33.164 35.007 32.7708 34.9905C32.1704 34.9635 31.4199 34.9305 30.5718 34.9305C29.5692 34.9305 28.8712 34.9635 28.3114 34.9905C27.9346 35.0085 27.6089 35.0235 27.2832 35.025" fill="black"/>
<path d="M59.4686 23.1735C58.9269 23.1623 58.394 23.3121 57.9376 23.604C56.8239 24.2805 56.2565 25.632 56.2565 27.618C56.2565 31.335 58.1192 33.9315 60.7865 33.9315C61.5016 33.9542 62.1992 33.7073 62.7407 33.24C63.5603 32.5725 63.9955 31.2075 63.9955 29.2965C63.9955 25.635 62.1749 23.1735 59.4656 23.1735M59.9789 35.31C55.1608 35.31 53.4452 31.7775 53.4452 28.473C53.4452 26.1645 54.3893 24.36 56.252 23.1075C57.5567 22.3003 59.0542 21.858 60.5883 21.8265C64.2642 21.8265 66.8324 24.468 66.8324 28.2525C66.8324 30.8235 65.8072 32.8545 63.8665 34.1235C62.9344 34.6935 61.3148 35.31 59.9789 35.31Z" fill="black"/>
<path d="M108.521 23.1735C107.978 23.1612 107.444 23.3111 106.987 23.604C105.873 24.2805 105.305 25.632 105.305 27.618C105.305 31.335 107.168 33.9315 109.835 33.9315C110.553 33.9557 111.253 33.7088 111.796 33.24C112.615 32.5725 113.049 31.2075 113.049 29.2965C113.049 25.635 111.23 23.1735 108.521 23.1735ZM109.034 35.31C104.216 35.31 102.5 31.7775 102.5 28.4745C102.5 26.163 103.444 24.36 105.308 23.1075C106.612 22.2999 108.11 21.8574 109.643 21.8265C113.319 21.8265 115.887 24.4695 115.887 28.251C115.887 30.825 114.862 32.8545 112.921 34.122C111.989 34.6935 110.37 35.31 109.034 35.31Z" fill="black"/>
<path d="M92.298 23.0475C90.8135 23.0475 89.8529 24.219 89.8529 26.0325C89.8529 27.846 90.6799 30.0015 93.0049 30.0015C93.4042 30.0015 94.1277 29.8245 94.4864 29.43C95.0268 28.9335 95.387 27.9075 95.387 26.8245C95.387 24.459 94.2342 23.0475 92.3055 23.0475M92.1134 35.5635C91.694 35.5589 91.2805 35.6623 90.9126 35.8635C89.7373 36.6135 89.1925 37.3635 89.1925 38.235C89.1925 39.051 89.5092 39.7005 90.1906 40.2765C91.0162 40.9755 92.1299 41.316 93.5933 41.316C96.4737 41.316 97.7645 39.768 97.7645 38.235C97.7645 37.167 97.2287 36.4515 96.1255 36.0465C95.2759 35.736 93.856 35.565 92.1179 35.565M92.31 42.915C90.5809 42.915 89.3351 42.5505 88.2709 41.7315C87.2352 40.9335 86.7699 39.7485 86.7699 38.9295C86.7811 38.4017 86.9826 37.8957 87.3373 37.5045C87.6375 37.1625 88.3354 36.522 89.949 35.4135C89.974 35.4029 89.9953 35.3851 90.0102 35.3624C90.0252 35.3398 90.0331 35.3132 90.033 35.286C90.0335 35.2557 90.0237 35.2261 90.0051 35.2021C89.9866 35.1781 89.9604 35.1612 89.931 35.154C88.6026 34.6455 88.2018 33.804 88.0802 33.354C88.0802 33.3375 88.0802 33.312 88.0667 33.2835C88.0292 33.1065 87.9932 32.9385 88.2348 32.766C88.421 32.634 88.7182 32.457 89.0364 32.2695C89.4856 32.021 89.9164 31.7408 90.3257 31.431C90.3477 31.4074 90.364 31.379 90.3734 31.3481C90.3827 31.3173 90.3848 31.2846 90.3796 31.2528C90.3744 31.2209 90.362 31.1907 90.3433 31.1644C90.3245 31.1381 90.3001 31.1164 90.2717 31.101C88.3054 30.441 87.3147 28.9815 87.3147 26.751C87.3087 26.0555 87.4706 25.3687 87.7868 24.7491C88.103 24.1294 88.5641 23.5951 89.1309 23.1915C89.9219 22.566 91.9077 21.8145 93.1941 21.8145H93.2691C94.5915 21.846 95.3375 22.1235 96.3701 22.5045C96.9576 22.7168 97.58 22.8155 98.2043 22.7955C99.2985 22.7955 99.7773 22.449 100.189 22.0455C100.255 22.2273 100.291 22.419 100.294 22.6125C100.319 23.0737 100.193 23.5306 99.9364 23.9145C99.7128 24.225 99.186 24.45 98.7041 24.45C98.6546 24.45 98.6066 24.45 98.554 24.4425C98.3005 24.4247 98.0492 24.383 97.8036 24.318L97.6805 24.3615C97.6415 24.4185 97.667 24.4815 97.6985 24.5625C97.7062 24.5783 97.7122 24.5949 97.7165 24.612C97.8044 25.0124 97.864 25.4183 97.8951 25.827C97.8951 28.1595 96.975 29.175 95.9799 29.928C95.0178 30.6495 93.8751 31.0917 92.6777 31.206C92.6522 31.206 92.5276 31.2165 92.2935 31.2375C92.1434 31.251 91.9483 31.269 91.9197 31.269H91.8912C91.6751 31.329 91.1107 31.5975 91.1107 32.097C91.1107 32.511 91.3659 33.0255 92.5862 33.1185L93.3757 33.174C94.9847 33.2865 96.9945 33.426 97.9402 33.7455C98.5674 33.9659 99.1092 34.3784 99.4883 34.9243C99.8675 35.4702 100.065 36.1216 100.052 36.786C100.052 38.8785 98.5631 40.8465 96.0699 42.0495C94.8942 42.6107 93.6069 42.8994 92.304 42.894" fill="black"/>
<path d="M84.9342 33.909C84.2288 33.8145 83.7139 33.7185 83.1061 33.4335C82.9868 33.31 82.9082 33.153 82.8809 32.9835C82.8164 32.001 82.8164 29.1495 82.8164 27.2835C82.8164 25.761 82.5612 24.4335 81.9158 23.481C81.1458 22.4025 80.0561 21.7695 78.6452 21.7695C77.3948 21.7695 75.7273 22.6245 74.3494 23.7975C74.3163 23.829 74.1047 24.03 74.1092 23.718C74.1137 23.406 74.1617 22.773 74.1918 22.368C74.2051 22.2604 74.193 22.1512 74.1565 22.0491C74.1201 21.947 74.0601 21.8548 73.9816 21.78C73.081 22.23 70.5549 22.83 69.6198 22.9215C68.9383 23.0535 68.7657 23.709 69.4937 23.9355H69.5042C70.0869 24.0961 70.6431 24.3406 71.1553 24.6615C71.4435 24.8835 71.412 25.2 71.412 25.4535C71.4435 27.576 71.4435 30.84 71.3474 32.6145C71.3159 33.312 71.1223 33.5655 70.6089 33.693L70.657 33.6765C70.2661 33.7744 69.8696 33.8485 69.4697 33.8985C69.3091 34.056 69.3091 34.9755 69.4697 35.166C69.7909 35.166 71.421 35.0715 72.7718 35.0715C74.63 35.0715 75.5922 35.166 76.074 35.166C76.2676 34.944 76.3306 34.089 76.2031 33.8985C75.7591 33.8784 75.3182 33.8146 74.8867 33.708C74.3749 33.582 74.2458 33.327 74.2143 32.7585C74.1512 31.2675 74.1512 28.0995 74.1512 25.944C74.1512 25.344 74.3103 25.0575 74.5025 24.894C75.1434 24.324 76.2031 23.9445 77.1322 23.9445C78.0328 23.9445 78.6331 24.2295 79.0834 24.609C79.6079 25.0664 79.9367 25.7074 80.002 26.4C80.1296 27.6 80.0966 30.0135 80.0966 32.1C80.0966 33.2415 80.002 33.528 79.5848 33.654C79.3926 33.7485 78.8793 33.8445 78.2699 33.9075C78.0778 34.098 78.1408 34.9845 78.2699 35.175C79.103 35.175 80.0711 35.0805 81.476 35.0805C83.2396 35.0805 84.3624 35.175 84.8112 35.175C85.0033 34.953 85.0678 34.125 84.9402 33.9075" fill="black"/>
</g>
<defs>
<clipPath id="clip0_1_87">
<rect width="167" height="45" fill="white"/>
</clipPath>
</defs>
</svg>
