<svg width="56" height="56" viewBox="0 0 56 56" fill="none" xmlns="http://www.w3.org/2000/svg">
<path d="M5.8125 0.5C3.5475 0.5 1.75766 1.70125 0.910159 3.78125C0.642659 4.42375 0.507386 5.10512 0.504886 5.80762C0.502386 8.13512 2.00235 10.0243 2.90235 11.1543C3.05985 11.3518 3.20157 11.5277 3.35157 11.7402L3.75684 12.2773C4.15934 12.8048 4.6177 13.4031 4.7627 13.7031C4.8102 13.8406 4.87301 14.0817 4.95801 14.3867C5.35051 15.7992 6.08305 18.4244 7.24805 20.4219C7.71805 21.2269 8.3795 22.2387 8.8545 22.9512C8.53699 24.5412 8 27.47 8 29.25C8 32.375 8.64805 34.8847 10.0605 37.1797C10.583 37.9997 12.1775 40.5 14.875 40.5C15.8325 40.5 17.4235 40.126 17.8535 37.751C19.766 40.2185 23 43.3125 28 45.5C28 45.5 18.627 34.5636 16.9795 27.7461C16.9795 27.7461 15.1866 29.5634 13.6641 33.2734C13.2091 32.1284 13 30.8375 13 29.25C13 27.6825 13.6895 24.1784 13.957 22.9609L14.1914 21.9014L13.5762 21.0078C13.5662 20.9903 12.3068 19.1722 11.5693 17.9072C10.7293 16.4672 10.1098 14.2389 9.77735 13.0439C9.61485 12.4614 9.48719 12.0399 9.36719 11.7549C8.92969 10.8074 8.28907 9.97523 7.72657 9.24023L7.41407 8.8252C7.25657 8.5977 7.04848 8.33406 6.81348 8.03906C6.35598 7.46406 5.5043 6.39258 5.5293 5.70508L5.80762 5.50977L5.8125 5.5C7.8 5.5 10.3602 6.91086 11.3252 7.44336C11.6402 7.61586 11.8716 7.73504 11.9941 7.79004L12.4287 7.98047L13.2832 8.00977C14.4007 8.03477 17.7973 8.11422 20.1973 9.07422C24.5748 10.8242 26.9951 12.5759 29.4551 15.7734C35.2651 23.3284 37.4087 33.1125 37.4287 33.21L37.7412 34.6211L39.1084 35.0654C39.1559 35.0829 42.9823 36.3616 46.5498 39.7041C42.0623 40.8141 40.5 43 40.5 43C40.5 43 41.69 45.32 47.375 48.9375C50.8125 51.125 52.6875 52.6875 55.5 55.5C55.5 55.5 52.6892 49.2495 48.7617 44.2695C51.7517 43.312 55.4268 42.8145 55.4268 42.8145L53.1514 39.6602C49.4064 34.4677 44.3841 31.8471 41.9941 30.8271C41.1641 27.6621 38.6574 19.5366 33.4199 12.7266C30.4224 8.82906 27.2327 6.49828 22.0527 4.42578C18.9852 3.20078 15.2968 3.05465 13.6543 3.01465C12.2168 2.22465 9.0225 0.5 5.8125 0.5ZM15.9688 10.5C15.9688 10.5 14.875 10.5 13.625 10.8125L17.0625 15.4951C18 14.2501 18 12.7949 18 12.7949C18 12.7949 17.3763 11.125 15.9688 10.5Z" fill="black"/>
</svg>
