<svg width="66" height="42" viewBox="0 0 66 42" fill="none" xmlns="http://www.w3.org/2000/svg">
<path d="M45.3501 0C45.0158 0 44.7097 0.268467 44.7097 0.641985V12.3728L42.0567 10.822C41.8906 10.7239 41.7035 10.6761 41.5161 10.6761C41.3288 10.6761 41.1416 10.7239 40.9756 10.822L34.6009 14.5489C34.2688 14.741 34.0645 15.0965 34.0645 15.4785V22.9405C34.0645 23.3247 34.2688 23.6781 34.6009 23.8702L40.9756 27.597C41.1416 27.6952 41.3288 27.7429 41.5161 27.7429C41.7035 27.7429 41.8906 27.6952 42.0567 27.597L48.4313 23.8702C48.7635 23.6781 48.9677 23.3226 48.9677 22.9405V19.2095V15.4785V2.6263C48.9677 2.24638 48.7654 1.89711 48.4396 1.70501L45.6661 0.0875434C45.5618 0.0277804 45.4565 0 45.3501 0ZM24.4839 10.6761C24.2971 10.6761 24.1104 10.7249 23.9433 10.822L17.5687 14.5489C17.2365 14.741 17.0323 15.0965 17.0323 15.4785V22.9405C17.0323 23.3247 17.2365 23.6781 17.5687 23.8702L23.9433 27.597C24.2776 27.7913 24.6902 27.7913 25.0244 27.597L31.3991 23.8702C31.7312 23.6781 31.9355 23.3226 31.9355 22.9405V15.4785C31.9355 15.0943 31.7312 14.741 31.3991 14.5489L25.0244 10.822C24.8573 10.7249 24.6707 10.6761 24.4839 10.6761ZM58.5484 10.6761C58.361 10.6761 58.1739 10.7239 58.0078 10.822L51.6332 14.5489C51.3011 14.741 51.0968 15.0965 51.0968 15.4785V22.9405C51.0968 23.3247 51.3011 23.6781 51.6332 23.8702L57.8165 27.6179C58.1487 27.8206 58.5655 27.8226 58.9018 27.6262L61.9415 25.8545C62.2566 25.6731 62.2588 25.2148 61.9415 25.0291L55.3548 21.1397V17.3086L58.5484 15.4452L61.7419 17.3086V19.9766C61.7419 20.333 62.0408 20.3879 62.2409 20.2684C63.0457 19.7946 65.4719 18.3841 65.4719 18.3841C65.7976 18.1942 66 17.8428 66 17.4628V15.4785C66 15.0943 65.7957 14.741 65.4636 14.5489L59.089 10.822C58.9208 10.7239 58.7357 10.6761 58.5484 10.6761ZM7.45161 10.6803C7.26426 10.6803 7.0771 10.728 6.91104 10.8262L0.536416 14.5489C0.204287 14.7431 0 15.0985 0 15.4827V25.0082C0 25.4735 0.502086 25.762 0.902344 25.5293L3.72996 23.8785C4.05571 23.6864 4.25806 23.3371 4.25806 22.9572V17.3169L7.45161 15.4493L10.6452 17.3169V22.9572C10.6452 23.3371 10.8475 23.6864 11.1733 23.8785L14.0009 25.5293C14.4011 25.7641 14.9032 25.4735 14.9032 25.0082V15.4827C14.9032 15.0985 14.6989 14.7431 14.3668 14.5489L7.99219 10.8262C7.82612 10.728 7.63897 10.6803 7.45161 10.6803ZM41.5161 15.4452L44.7097 17.3128V19.2095V21.1063L41.5161 22.9739L38.3226 21.1063V17.3128L41.5161 15.4452ZM58.5484 17.0835L56.7229 18.1507V20.2809L58.5484 21.3439L60.3739 20.2809V18.1507L58.5484 17.0835ZM32.8004 25.6085C32.5814 25.6085 32.36 25.6623 32.1684 25.7711L26.1804 29.2395C25.7866 29.4572 25.5484 29.8856 25.5484 30.3317V37.2601C25.5484 37.7062 25.7972 38.1261 26.1804 38.3524L27.7564 39.2528C28.5122 39.6263 28.79 39.628 29.1328 39.628C30.2612 39.628 30.9042 38.9515 30.9042 37.7562V30.9112C30.9042 30.8066 30.8233 30.7319 30.7296 30.7319H29.9728C29.8685 30.7319 29.794 30.8173 29.794 30.9112V37.7562C29.794 38.2749 29.2473 38.8068 28.3552 38.3607L26.7169 37.4144C26.6636 37.3824 26.6254 37.3179 26.6254 37.256V30.3275C26.6254 30.2656 26.6551 30.1928 26.7169 30.1608L32.7048 26.7007C32.7686 26.6687 32.8408 26.6687 32.8919 26.7007L38.8839 30.1608C38.9457 30.1928 38.9754 30.255 38.9754 30.3275V37.256C38.9754 37.3285 38.935 37.3907 38.8839 37.4227L32.8919 40.8953C32.8387 40.9273 32.7559 40.9273 32.7048 40.8953L31.1745 39.9823C31.1341 39.961 31.0694 39.9485 31.029 39.9698C30.6053 40.2196 30.5205 40.2522 30.1266 40.3867C30.0223 40.4187 29.8805 40.4828 30.1807 40.6493L32.1684 41.8332C32.3663 41.9378 32.5832 42 32.8004 42C33.0282 42 33.2496 41.938 33.4241 41.8249L39.412 38.3524C39.8059 38.1346 40.0441 37.7062 40.0441 37.2601V30.3317C40.0441 29.8856 39.7953 29.4679 39.412 29.2395L33.4241 25.7711C33.2379 25.6623 33.0194 25.6085 32.8004 25.6085ZM42.1399 28.806C41.5288 28.806 40.9922 29.3013 40.9922 29.9565C40.9922 30.5904 41.5075 31.1113 42.1399 31.1113C42.7722 31.1113 43.2876 30.5904 43.2876 29.9565C43.2876 29.3013 42.7615 28.7953 42.1399 28.806ZM42.1274 28.9894C42.6682 28.9894 43.1046 29.4165 43.1046 29.9565C43.1046 30.4859 42.666 30.9234 42.1274 30.9362C41.5973 30.9362 41.1668 30.4965 41.1668 29.9565C41.1668 29.4165 41.5994 28.9894 42.1274 28.9894ZM41.7074 29.302V30.5985H41.9527V30.0816H42.1815C42.2751 30.0816 42.2974 30.1216 42.3187 30.1941C42.3187 30.2048 42.3579 30.5408 42.3686 30.6027H42.6347C42.6049 30.5408 42.583 30.3634 42.5723 30.2567C42.5425 30.0902 42.5328 29.9755 42.3561 29.9649C42.4498 29.9328 42.6056 29.8829 42.6056 29.6439C42.6056 29.3002 42.3078 29.302 42.1523 29.302H41.7074ZM41.9527 29.5105H42.1607C42.2245 29.5105 42.3478 29.5084 42.3478 29.6856C42.3478 29.7581 42.3164 29.8753 42.1482 29.8732H41.9527V29.5105ZM34.4055 30.5693C32.6959 30.5693 31.6818 31.2998 31.6818 32.5036C31.6818 33.8227 32.6976 34.1756 34.3348 34.342C36.2935 34.5384 36.4472 34.8208 36.4472 35.205C36.4472 35.8794 35.9072 36.1596 34.6425 36.1596C33.0564 36.1596 32.7075 35.7654 32.5925 34.9757C32.5818 34.8924 32.5074 34.8298 32.4137 34.8298H31.6361C31.5424 34.8298 31.4614 34.9044 31.4614 35.009C31.4614 36.0165 32.0092 37.2226 34.63 37.2226C36.5526 37.2205 37.6406 36.4738 37.6406 35.1633C37.6406 33.8656 36.769 33.5204 34.9253 33.2707C33.0602 33.0209 32.8753 32.8953 32.8753 32.4578C32.8753 32.0949 33.028 31.6199 34.4055 31.6199C35.6382 31.6199 36.0977 31.8901 36.285 32.7204C36.3063 32.8036 36.3642 32.8538 36.4472 32.8538H37.2248C37.2759 32.8538 37.3197 32.8337 37.3495 32.8038C37.3815 32.7632 37.4018 32.7216 37.3911 32.6704C37.2676 31.2361 36.3238 30.5693 34.4055 30.5693Z" fill="black"/>
</svg>
