<svg width="44" height="40" viewBox="0 0 44 40" fill="none" xmlns="http://www.w3.org/2000/svg">
<mask id="path-1-inside-1_1_77" fill="white">
<path fill-rule="evenodd" clip-rule="evenodd" d="M31.1354 0.00304322C30.3899 -0.0219155 29.6096 0.107496 28.8273 0.360048C27.2626 0.865154 25.6229 1.84948 23.9402 3.21237C23.2808 3.74649 22.6154 4.35703 21.9477 5.00483C21.2948 4.37348 20.643 3.77932 19.9981 3.257C18.3168 1.8952 16.6816 0.910495 15.1204 0.406533C13.5593 -0.0974289 12.0059 -0.113045 10.7302 0.620365C9.45438 1.35377 8.69146 2.70008 8.34921 4.29826C8.00695 5.89644 8.04465 7.79967 8.38842 9.93039C8.50783 10.6705 8.67812 11.4469 8.87208 12.2379C8.14311 12.4579 7.43518 12.6892 6.77871 12.9445C4.79755 13.715 3.15825 14.6367 1.96452 15.7336C0.770785 16.8304 0 18.1617 0 19.6234C0 21.0852 0.770785 22.4146 1.96452 23.5115C3.15825 24.6083 4.79755 25.5319 6.77871 26.3024C7.48067 26.5754 8.24065 26.8212 9.02521 27.0536C8.74301 28.1035 8.51436 29.1224 8.35854 30.0882C8.0145 32.2206 7.97817 34.1241 8.3212 35.7259C8.66423 37.3277 9.42753 38.6816 10.7096 39.4186C11.9917 40.1557 13.552 40.1376 15.1167 39.6325C16.6814 39.1274 18.3192 38.1449 20.0019 36.782C20.6552 36.2528 21.3161 35.6491 21.9776 35.0081C22.6425 35.653 23.3061 36.2595 23.9627 36.7913C25.644 38.1531 27.281 39.1359 28.8422 39.6399C30.4034 40.1439 31.9567 40.1595 33.2325 39.4261C34.5083 38.6927 35.2693 37.3464 35.6116 35.7482C35.9538 34.15 35.9161 32.2486 35.5724 30.1179C35.4161 29.1495 35.1873 28.1273 34.9038 27.0741C35.7143 26.836 36.4983 26.5836 37.2213 26.3024C39.2025 25.5319 40.8417 24.6083 42.0355 23.5115C43.2292 22.4146 44 21.0852 44 19.6234C44 18.1617 43.2292 16.8304 42.0355 15.7336C40.8417 14.6367 39.2025 13.715 37.2213 12.9445C36.5554 12.6855 35.8366 12.4512 35.0962 12.2286C35.2917 11.4328 35.4653 10.6508 35.5854 9.90622C35.9295 7.77379 35.9658 5.86846 35.6228 4.26665C35.2798 2.66484 34.5146 1.31278 33.2325 0.575739C32.5915 0.207222 31.8809 0.028002 31.1354 0.00304322ZM31.0476 1.94054C31.5154 1.95328 31.9145 2.06412 32.2558 2.26036C32.9386 2.65283 33.4432 3.4167 33.7124 4.67386C33.9816 5.93102 33.9723 7.62958 33.6545 9.59941C33.5457 10.2738 33.3877 10.9886 33.2082 11.721C31.2525 11.2523 29.1094 10.9046 26.8254 10.7002C25.6788 9.11853 24.5006 7.67761 23.3128 6.39938C23.9411 5.7887 24.5653 5.21756 25.1746 4.72406C26.729 3.4651 28.2005 2.60844 29.4286 2.21201C30.0426 2.0138 30.5798 1.9278 31.0476 1.94054ZM12.9038 1.94612C13.3743 1.93304 13.9127 2.01881 14.5285 2.21759C15.7601 2.61516 17.2342 3.47144 18.7899 4.7315C19.387 5.21509 19.9972 5.77536 20.6125 6.37149C19.4159 7.66018 18.228 9.11359 17.0738 10.7095C14.7994 10.9176 12.6651 11.2672 10.719 11.7377C10.5408 11.0094 10.3828 10.2983 10.2745 9.62731C9.95642 7.65576 9.94849 5.95696 10.2185 4.69617C10.4885 3.43538 10.9972 2.66576 11.6863 2.26965C12.0308 2.0716 12.4333 1.9592 12.9038 1.94612ZM21.9776 7.76976C22.7565 8.61372 23.5355 9.53725 24.3081 10.531C23.5489 10.4995 22.7805 10.4808 22 10.4808C21.204 10.4808 20.4209 10.5001 19.6471 10.5328C20.4199 9.53835 21.1985 8.61435 21.9776 7.76976ZM22 12.4034C23.3002 12.4034 24.5675 12.4566 25.8002 12.5466C26.6484 13.7596 27.4773 15.0465 28.267 16.4085C28.961 17.6054 29.589 18.8004 30.1606 19.9805C29.583 21.1762 28.9444 22.3874 28.2409 23.6007C27.6216 24.6688 26.9749 25.6832 26.3175 26.6613C24.9251 26.7772 23.4823 26.8416 22 26.8416C20.482 26.8416 19.0068 26.7733 17.5836 26.652C16.9371 25.688 16.3013 24.6889 15.6919 23.6379C14.9899 22.4273 14.3545 21.2184 13.7778 20.0251C14.3569 18.825 14.9952 17.6094 15.7012 16.3918C16.4869 15.0369 17.3133 13.7574 18.1569 12.5503C19.4028 12.4583 20.6848 12.4034 22 12.4034ZM28.2614 12.7846C29.8376 12.9804 31.3174 13.2522 32.6947 13.5785C32.286 14.9124 31.7826 16.3057 31.1727 17.7436C30.7767 16.9835 30.3666 16.2208 29.9234 15.4565C29.3864 14.5303 28.8271 13.6473 28.2614 12.7846ZM15.6359 12.7994C15.0822 13.6461 14.5374 14.5119 14.0112 15.4193C13.5624 16.1934 13.1437 16.9664 12.7432 17.7362C12.1386 16.3069 11.6382 14.9216 11.2325 13.5953C12.5995 13.2684 14.0707 12.9975 15.6359 12.7994ZM34.5864 14.0843C35.2641 14.2885 35.9187 14.5016 36.5191 14.7351C38.3455 15.4453 39.7901 16.2864 40.7264 17.1467C41.6627 18.0071 42.0691 18.8275 42.0691 19.6234C42.0691 20.4194 41.6627 21.2398 40.7264 22.1002C39.7901 22.9605 38.3455 23.8016 36.5191 24.5118C35.8519 24.7713 35.1188 25.0066 34.3567 25.2295C33.813 23.5552 33.1191 21.8083 32.2932 20.0251C33.2428 17.9777 34.0099 15.9816 34.5864 14.0843ZM9.38189 14.0936C9.9518 15.9719 10.709 17.9483 11.6452 19.9749C10.8139 21.7685 10.1165 23.5253 9.57049 25.2091C8.8352 24.992 8.12696 24.7631 7.48086 24.5118C5.65453 23.8016 4.20989 22.9605 3.27358 22.1002C2.33726 21.2398 1.93091 20.4194 1.93091 19.6234C1.93091 18.8275 2.33726 18.0071 3.27358 17.1467C4.20989 16.2864 5.65453 15.4453 7.48086 14.7351C8.07205 14.5052 8.71565 14.2951 9.38189 14.0936ZM22 15.2501C19.3711 15.2501 17.2194 17.3926 17.2194 20.0102C17.2194 22.6278 19.3711 24.7703 22 24.7703C24.6289 24.7703 26.7806 22.6278 26.7806 20.0102C26.7806 17.3926 24.6289 15.2501 22 15.2501ZM12.7656 22.2619C13.1679 23.0356 13.5862 23.8119 14.0373 24.5899C14.3903 25.1987 14.7508 25.7912 15.1167 26.3731C13.8327 26.1958 12.6121 25.9713 11.4659 25.7056C11.8304 24.594 12.2665 23.4401 12.7656 22.2619ZM31.197 22.2619C31.6982 23.4429 32.1345 24.5986 32.5005 25.713C31.3506 25.9785 30.1263 26.2022 28.8385 26.3787C29.2092 25.7897 29.5753 25.1897 29.9328 24.5732C30.3806 23.8009 30.7973 23.0299 31.197 22.2619ZM10.915 27.5538C12.6454 27.962 14.521 28.2755 16.5098 28.4798C17.8374 30.3918 19.2205 32.1098 20.6125 33.6117C19.9901 34.216 19.3731 34.7832 18.7694 35.2722C17.215 36.5311 15.7416 37.3859 14.5135 37.7824C13.2855 38.1788 12.369 38.1265 11.6863 37.734C11.0036 37.3415 10.5008 36.5777 10.2316 35.3205C9.96234 34.0634 9.96977 32.3667 10.2876 30.3968C10.4318 29.5032 10.6472 28.5463 10.915 27.5538ZM33.0532 27.5612C33.3233 28.5598 33.5394 29.5202 33.6844 30.4191C34.0025 32.3907 34.0104 34.0895 33.7404 35.3503C33.4704 36.6111 32.9654 37.3825 32.2764 37.7786C31.5874 38.1748 30.662 38.2264 29.4304 37.8288C28.1989 37.4313 26.7247 36.575 25.169 35.3149C24.5609 34.8224 23.9397 34.2507 23.3128 33.6415C24.7141 32.1337 26.107 30.4069 27.4435 28.4835C29.4373 28.2806 31.3181 27.9689 33.0532 27.5612ZM19.0047 28.675C19.9864 28.7283 20.981 28.7643 22 28.7643C22.9853 28.7643 23.9477 28.7304 24.8982 28.6806C23.9265 29.986 22.9361 31.1727 21.9496 32.2413C20.9637 31.1704 19.9751 29.9816 19.0047 28.675Z"/>
</mask>
<path fill-rule="evenodd" clip-rule="evenodd" d="M31.1354 0.00304322C30.3899 -0.0219155 29.6096 0.107496 28.8273 0.360048C27.2626 0.865154 25.6229 1.84948 23.9402 3.21237C23.2808 3.74649 22.6154 4.35703 21.9477 5.00483C21.2948 4.37348 20.643 3.77932 19.9981 3.257C18.3168 1.8952 16.6816 0.910495 15.1204 0.406533C13.5593 -0.0974289 12.0059 -0.113045 10.7302 0.620365C9.45438 1.35377 8.69146 2.70008 8.34921 4.29826C8.00695 5.89644 8.04465 7.79967 8.38842 9.93039C8.50783 10.6705 8.67812 11.4469 8.87208 12.2379C8.14311 12.4579 7.43518 12.6892 6.77871 12.9445C4.79755 13.715 3.15825 14.6367 1.96452 15.7336C0.770785 16.8304 0 18.1617 0 19.6234C0 21.0852 0.770785 22.4146 1.96452 23.5115C3.15825 24.6083 4.79755 25.5319 6.77871 26.3024C7.48067 26.5754 8.24065 26.8212 9.02521 27.0536C8.74301 28.1035 8.51436 29.1224 8.35854 30.0882C8.0145 32.2206 7.97817 34.1241 8.3212 35.7259C8.66423 37.3277 9.42753 38.6816 10.7096 39.4186C11.9917 40.1557 13.552 40.1376 15.1167 39.6325C16.6814 39.1274 18.3192 38.1449 20.0019 36.782C20.6552 36.2528 21.3161 35.6491 21.9776 35.0081C22.6425 35.653 23.3061 36.2595 23.9627 36.7913C25.644 38.1531 27.281 39.1359 28.8422 39.6399C30.4034 40.1439 31.9567 40.1595 33.2325 39.4261C34.5083 38.6927 35.2693 37.3464 35.6116 35.7482C35.9538 34.15 35.9161 32.2486 35.5724 30.1179C35.4161 29.1495 35.1873 28.1273 34.9038 27.0741C35.7143 26.836 36.4983 26.5836 37.2213 26.3024C39.2025 25.5319 40.8417 24.6083 42.0355 23.5115C43.2292 22.4146 44 21.0852 44 19.6234C44 18.1617 43.2292 16.8304 42.0355 15.7336C40.8417 14.6367 39.2025 13.715 37.2213 12.9445C36.5554 12.6855 35.8366 12.4512 35.0962 12.2286C35.2917 11.4328 35.4653 10.6508 35.5854 9.90622C35.9295 7.77379 35.9658 5.86846 35.6228 4.26665C35.2798 2.66484 34.5146 1.31278 33.2325 0.575739C32.5915 0.207222 31.8809 0.028002 31.1354 0.00304322ZM31.0476 1.94054C31.5154 1.95328 31.9145 2.06412 32.2558 2.26036C32.9386 2.65283 33.4432 3.4167 33.7124 4.67386C33.9816 5.93102 33.9723 7.62958 33.6545 9.59941C33.5457 10.2738 33.3877 10.9886 33.2082 11.721C31.2525 11.2523 29.1094 10.9046 26.8254 10.7002C25.6788 9.11853 24.5006 7.67761 23.3128 6.39938C23.9411 5.7887 24.5653 5.21756 25.1746 4.72406C26.729 3.4651 28.2005 2.60844 29.4286 2.21201C30.0426 2.0138 30.5798 1.9278 31.0476 1.94054ZM12.9038 1.94612C13.3743 1.93304 13.9127 2.01881 14.5285 2.21759C15.7601 2.61516 17.2342 3.47144 18.7899 4.7315C19.387 5.21509 19.9972 5.77536 20.6125 6.37149C19.4159 7.66018 18.228 9.11359 17.0738 10.7095C14.7994 10.9176 12.6651 11.2672 10.719 11.7377C10.5408 11.0094 10.3828 10.2983 10.2745 9.62731C9.95642 7.65576 9.94849 5.95696 10.2185 4.69617C10.4885 3.43538 10.9972 2.66576 11.6863 2.26965C12.0308 2.0716 12.4333 1.9592 12.9038 1.94612ZM21.9776 7.76976C22.7565 8.61372 23.5355 9.53725 24.3081 10.531C23.5489 10.4995 22.7805 10.4808 22 10.4808C21.204 10.4808 20.4209 10.5001 19.6471 10.5328C20.4199 9.53835 21.1985 8.61435 21.9776 7.76976ZM22 12.4034C23.3002 12.4034 24.5675 12.4566 25.8002 12.5466C26.6484 13.7596 27.4773 15.0465 28.267 16.4085C28.961 17.6054 29.589 18.8004 30.1606 19.9805C29.583 21.1762 28.9444 22.3874 28.2409 23.6007C27.6216 24.6688 26.9749 25.6832 26.3175 26.6613C24.9251 26.7772 23.4823 26.8416 22 26.8416C20.482 26.8416 19.0068 26.7733 17.5836 26.652C16.9371 25.688 16.3013 24.6889 15.6919 23.6379C14.9899 22.4273 14.3545 21.2184 13.7778 20.0251C14.3569 18.825 14.9952 17.6094 15.7012 16.3918C16.4869 15.0369 17.3133 13.7574 18.1569 12.5503C19.4028 12.4583 20.6848 12.4034 22 12.4034ZM28.2614 12.7846C29.8376 12.9804 31.3174 13.2522 32.6947 13.5785C32.286 14.9124 31.7826 16.3057 31.1727 17.7436C30.7767 16.9835 30.3666 16.2208 29.9234 15.4565C29.3864 14.5303 28.8271 13.6473 28.2614 12.7846ZM15.6359 12.7994C15.0822 13.6461 14.5374 14.5119 14.0112 15.4193C13.5624 16.1934 13.1437 16.9664 12.7432 17.7362C12.1386 16.3069 11.6382 14.9216 11.2325 13.5953C12.5995 13.2684 14.0707 12.9975 15.6359 12.7994ZM34.5864 14.0843C35.2641 14.2885 35.9187 14.5016 36.5191 14.7351C38.3455 15.4453 39.7901 16.2864 40.7264 17.1467C41.6627 18.0071 42.0691 18.8275 42.0691 19.6234C42.0691 20.4194 41.6627 21.2398 40.7264 22.1002C39.7901 22.9605 38.3455 23.8016 36.5191 24.5118C35.8519 24.7713 35.1188 25.0066 34.3567 25.2295C33.813 23.5552 33.1191 21.8083 32.2932 20.0251C33.2428 17.9777 34.0099 15.9816 34.5864 14.0843ZM9.38189 14.0936C9.9518 15.9719 10.709 17.9483 11.6452 19.9749C10.8139 21.7685 10.1165 23.5253 9.57049 25.2091C8.8352 24.992 8.12696 24.7631 7.48086 24.5118C5.65453 23.8016 4.20989 22.9605 3.27358 22.1002C2.33726 21.2398 1.93091 20.4194 1.93091 19.6234C1.93091 18.8275 2.33726 18.0071 3.27358 17.1467C4.20989 16.2864 5.65453 15.4453 7.48086 14.7351C8.07205 14.5052 8.71565 14.2951 9.38189 14.0936ZM22 15.2501C19.3711 15.2501 17.2194 17.3926 17.2194 20.0102C17.2194 22.6278 19.3711 24.7703 22 24.7703C24.6289 24.7703 26.7806 22.6278 26.7806 20.0102C26.7806 17.3926 24.6289 15.2501 22 15.2501ZM12.7656 22.2619C13.1679 23.0356 13.5862 23.8119 14.0373 24.5899C14.3903 25.1987 14.7508 25.7912 15.1167 26.3731C13.8327 26.1958 12.6121 25.9713 11.4659 25.7056C11.8304 24.594 12.2665 23.4401 12.7656 22.2619ZM31.197 22.2619C31.6982 23.4429 32.1345 24.5986 32.5005 25.713C31.3506 25.9785 30.1263 26.2022 28.8385 26.3787C29.2092 25.7897 29.5753 25.1897 29.9328 24.5732C30.3806 23.8009 30.7973 23.0299 31.197 22.2619ZM10.915 27.5538C12.6454 27.962 14.521 28.2755 16.5098 28.4798C17.8374 30.3918 19.2205 32.1098 20.6125 33.6117C19.9901 34.216 19.3731 34.7832 18.7694 35.2722C17.215 36.5311 15.7416 37.3859 14.5135 37.7824C13.2855 38.1788 12.369 38.1265 11.6863 37.734C11.0036 37.3415 10.5008 36.5777 10.2316 35.3205C9.96234 34.0634 9.96977 32.3667 10.2876 30.3968C10.4318 29.5032 10.6472 28.5463 10.915 27.5538ZM33.0532 27.5612C33.3233 28.5598 33.5394 29.5202 33.6844 30.4191C34.0025 32.3907 34.0104 34.0895 33.7404 35.3503C33.4704 36.6111 32.9654 37.3825 32.2764 37.7786C31.5874 38.1748 30.662 38.2264 29.4304 37.8288C28.1989 37.4313 26.7247 36.575 25.169 35.3149C24.5609 34.8224 23.9397 34.2507 23.3128 33.6415C24.7141 32.1337 26.107 30.4069 27.4435 28.4835C29.4373 28.2806 31.3181 27.9689 33.0532 27.5612ZM19.0047 28.675C19.9864 28.7283 20.981 28.7643 22 28.7643C22.9853 28.7643 23.9477 28.7304 24.8982 28.6806C23.9265 29.986 22.9361 31.1727 21.9496 32.2413C20.9637 31.1704 19.9751 29.9816 19.0047 28.675Z" fill="black" stroke="black" stroke-width="416" mask="url(#path-1-inside-1_1_77)"/>
</svg>
