<svg width="66" height="66" viewBox="0 0 66 66" fill="none" xmlns="http://www.w3.org/2000/svg">
<path d="M61.2414 33.3064L65.4155 26.2359C65.5832 25.8833 65.6063 25.4786 65.4791 25.1144L57.2119 1.43437C56.9575 0.711715 56.2002 0.301246 55.466 0.480465L31.1674 6.40047C30.7049 6.51609 30.3233 6.84562 30.1441 7.29078L27.5599 13.76H19.68C19.2696 13.76 18.8707 13.9334 18.5932 14.2341L0.833164 33.4741C0.283945 34.0695 0.312852 34.9945 0.896758 35.5495L19.5239 53.3095C19.7957 53.5755 20.1657 53.72 20.5414 53.72H29.0341L31.6241 60.1892C31.8149 60.6691 32.2427 61.0102 32.7457 61.0969L58.5878 65.5369C58.6688 65.5542 58.7555 65.56 58.8364 65.56C59.5244 65.56 60.1314 65.0859 60.2818 64.398L65.5254 40.3769C65.6063 40.0069 65.5427 39.6195 65.3403 39.29L61.2414 33.3064ZM27.5599 13.76L48.4186 9.93859L37.44 31.52H12.5286L27.5599 13.76ZM29.0399 53.72L12.5286 37.44H37.44L50.39 56.9286L29.0399 53.72ZM55.7724 53.5697L43.36 34.48L54.2114 12.8986L61.2414 33.3122L55.7724 53.5697Z" fill="black"/>
</svg>
